<?xml version="1.0" encoding="utf-8"?>
<!-- Generator: Adobe Illustrator 25.4.1, SVG Export Plug-In . SVG Version: 6.00 Build 0)  -->
<svg version="1.1" id="Layer_1" xmlns="http://www.w3.org/2000/svg" xmlns:xlink="http://www.w3.org/1999/xlink" x="0px" y="0px"
	 viewBox="0 0 511 81.3" style="enable-background:new 0 0 511 81.3;" xml:space="preserve">
<path d="M48.3,79.5H1.6V1.8h7.2v70.9h39.5V79.5z M118.4,79.5H111l-25.8-67L60,79.5h-7.5L82,1.8h6.6L118.4,79.5z M336.8,79.5h-7.4
	l-25.8-67l-25.2,67h-7.5l29.5-77.8h6.6L336.8,79.5z M243,79.5h-26V1.8h26c7.6,0,14.7,2.8,19.8,7.7c8.3,8,9.5,19.7,9.5,31.1
	c0,11.5-1.1,23.2-9.5,31.2C257.7,76.8,250.6,79.5,243,79.5z M224.1,72.5H243c5.6,0,10.9-2,14.6-5.5c6.8-6.6,7.4-17.1,7.4-26.4
	c0-9.3-0.6-19.8-7.4-26.3c-3.7-3.5-9-5.5-14.6-5.5h-18.9V72.5z M429.2,79.5H422V8.7h-24.2v-7h55.6v7h-24.3V79.5z M178.6,79.5h-7.9
	l-15.1-32.9l-0.1-6.4l0.7-0.1c9.7-1.2,14.9-6.6,14.9-15.6c0-10.2-6.8-15.9-19.1-15.9h-21.4v70.9h-7.2V1.8H152
	c16.6,0,26.5,8.5,26.5,22.7c0,9.9-6,18-15.5,20.9L178.6,79.5z M395.8,79.5H388l-15.1-32.9l-0.1-6.4l0.7-0.1
	c9.7-1.2,14.9-6.6,14.9-15.6c0-10.2-6.8-15.9-19.1-15.9h-21.5v70.9h-7.2V1.8h28.6c16.6,0,26.5,8.5,26.5,22.7c0,9.9-6,18-15.5,20.9
	L395.8,79.5z M511,79.5h-50.4l0-77.8H511v7h-43.1v26.4h37.9V42h-37.9v30.6H511V79.5z"/>
</svg>
