<?xml version="1.0" encoding="utf-8"?>
<!-- Generator: Adobe Illustrator 25.4.1, SVG Export Plug-In . SVG Version: 6.00 Build 0)  -->
<svg version="1.1" id="Layer_1" xmlns="http://www.w3.org/2000/svg" xmlns:xlink="http://www.w3.org/1999/xlink" x="0px" y="0px"
	 viewBox="0 0 482.2 77.8" style="enable-background:new 0 0 482.2 77.8;" xml:space="preserve">
<style type="text/css">
	.st0{fill:#FFFFFF;}
</style>
<g id="Camada_2">
	<g id="Layer_1_00000132793216952296344790000018410888165909861509_">
		<path class="st0" d="M45.8,75.4H1.9v-73h6.7V69h37.1v6.4H45.8z M111.6,75.4h-6.9L80.5,12.5L56.8,75.4h-7l27.6-73h6.2L111.6,75.4z
			 M316.7,75.4h-6.9l-24.2-62.9l-23.7,62.9h-7l27.7-73h6.2L316.7,75.4z M228.6,75.4h-24.4v-73h24.4c6.9-0.1,13.6,2.5,18.6,7.3
			c7.8,7.5,8.9,18.5,8.9,29.2s-1.1,21.8-8.9,29.3C242.2,72.9,235.5,75.5,228.6,75.4z M210.9,68.8h17.7c5.1,0.1,9.9-1.8,13.7-5.1
			c6.4-6.2,6.9-16.1,6.9-24.8s-0.5-18.6-6.9-24.7c-3.8-3.4-8.7-5.2-13.7-5.1h-17.7V68.8z M403.5,75.4h-6.7V8.9h-22.7V2.4h52.2V9
			h-22.8V75.4z M168.1,75.4h-7.4l-14.2-30.9l-0.1-6l0.6-0.1c9.1-1.1,14-6.2,14-14.7c0-9.6-6.4-14.9-17.9-14.9H123v66.6h-6.7v-73
			h26.8c15.6,0,24.9,8,24.9,21.3c0.1,9.1-5.8,17.1-14.5,19.7L168.1,75.4z M372.2,75.4h-7.4l-14.2-30.9l-0.1-6l0.7-0.1
			c9.1-1.1,14-6.2,14-14.7c0-9.6-6.4-14.9-17.9-14.9h-20.1v66.6h-6.7v-73h26.9c15.6,0,24.9,8,24.9,21.3c0.1,9.1-5.8,17.1-14.5,19.7
			L372.2,75.4z M480.3,75.4H433v-73h47.3V9h-40.5v24.7h35.6v6.5h-35.6v28.7h40.4L480.3,75.4z"/>
	</g>
</g>
</svg>
